<?xml version="1.0" encoding="UTF-8"?>
<svg width="382px" height="94px" viewBox="0 0 382 94" version="1.1" xmlns="http://www.w3.org/2000/svg" xmlns:xlink="http://www.w3.org/1999/xlink">
    <!-- Generator: Sketch 48.2 (47327) - http://www.bohemiancoding.com/sketch -->
    <title>RJ1</title>
    <desc>Created with Sketch.</desc>
    <defs></defs>
    <g id="Logo_RJ1" stroke="none" stroke-width="1" fill="none" fill-rule="evenodd">
        <g id="RJ1" fill="#FFFFFF" fill-rule="nonzero">
            <path d="M361.347755,1.23221741 L339.475896,1.23221741 C339.886635,1.54027176 340.092004,2.05369568 340.092004,2.77248917 L340.092004,92.210936 C340.092004,92.8270447 339.886635,93.3404686 339.475896,93.6485229 L361.347755,93.6485229 C372.540396,93.6485229 381.576657,84.612262 381.576657,73.4196205 L381.576657,21.4611198 C381.576657,10.2684784 372.437711,1.23221741 361.347755,1.23221741 Z" id="Shape"></path>
            <path d="M227.652166,0.718793488 L213.687035,0.718793488 C212.454818,0.718793488 211.325285,1.74564133 211.325285,3.08054352 L211.325285,65.7182617 C211.325285,70.8525009 207.115209,75.0625771 201.98097,75.0625771 L156.69698,75.0625771 C152.589589,75.0625771 149.200991,71.6739792 149.200991,67.5665878 C149.200991,66.3343704 148.174143,65.2048378 146.839241,65.2048378 L132.87411,65.2048378 C131.641893,65.2048378 130.51236,66.2316856 130.51236,67.5665878 C130.51236,81.9424576 142.218426,93.6485229 156.594296,93.6485229 L201.878285,93.6485229 C217.281003,93.6485229 229.808546,81.1209793 229.808546,65.7182617 L229.808546,3.08054352 C229.911231,1.84832611 228.884383,0.718793488 227.652166,0.718793488 Z" id="Shape"></path>
            <g id="Group" transform="translate(222.825981, 1.026848)">
                <path d="M7.08525009,5.7503479 C3.1832283,9.44700012 0.718793488,14.5812393 0.718793488,20.434272 L0.718793488,56.9900551 L0.718793488,72.3927727 C0.718793488,75.1652618 1.33490219,77.8350662 2.25906525,80.299501 C5.23692398,75.8840553 6.98256531,70.5444466 6.98256531,64.6914139 L7.08525009,5.7503479 Z" id="Shape"></path>
                <path d="M81.0182945,13.3490219 L108.024393,0.616108704 C108.435132,0.410739136 108.845871,0.205369568 109.25661,0.102684784 L42.9222397,0.102684784 L21.0503807,0.102684784 C20.7423264,0.102684784 20.434272,0.102684784 20.1262177,0.102684784 C20.0235329,0.102684784 19.8181633,0.102684784 19.7154785,0.102684784 C19.6127937,0.102684784 19.5101089,0.102684784 19.3047394,0.102684784 C17.6617828,0.205369568 16.1215111,0.51342392 14.5812393,1.02684784 L14.4785545,1.02684784 C14.273185,1.12953262 14.0678154,1.12953262 13.9651306,1.23221741 C12.7329132,1.64295654 11.6033806,2.25906525 10.5765327,2.87517395 C10.2684784,3.08054352 9.96042404,3.28591309 9.65236969,3.49128265 L9.65236969,64.4860443 C9.65236969,71.2632401 7.39330444,77.5270119 3.59396744,82.6612511 C7.18793488,88.5142838 13.5543915,92.4163055 20.9476959,92.4163055 L42.8195549,92.4163055 L99.5015556,92.4163055 C99.0908165,92.1082512 98.8854469,91.5948273 98.8854469,90.8760338 L98.8854469,21.3584351 L80.812925,29.470533 C80.5048706,29.5732178 80.299501,29.5732178 80.1968163,29.5732178 C79.6833923,29.5732178 79.2726532,29.1624786 79.2726532,28.2383156 L79.2726532,15.7107719 C79.2726532,14.7866089 79.7860771,13.8624458 81.0182945,13.3490219 Z" id="Shape"></path>
            </g>
            <path d="M113.774741,46.7215767 C117.984817,41.8953918 120.551936,35.7343048 120.551936,28.8544243 C120.654621,13.3490219 108.127077,0.718793488 92.7243599,0.718793488 L2.97785873,0.718793488 C1.74564133,0.718793488 0.616108704,1.74564133 0.616108704,3.08054352 L0.616108704,52.266555 L0.616108704,82.0451424 L0.616108704,91.3894577 C0.616108704,92.6216751 1.64295654,93.7512077 2.97785873,93.7512077 L16.9429893,93.7512077 C18.1752068,93.7512077 19.3047394,92.7243599 19.3047394,91.3894577 L19.3047394,56.4766312 L19.3047394,21.6664894 C19.3047394,20.434272 20.3315872,19.3047394 21.6664894,19.3047394 L92.8270447,19.3047394 C97.8585991,19.3047394 102.068675,23.4121307 102.17136,28.4436852 C102.274045,33.6806091 97.8585991,37.8906853 92.6216751,37.8906853 L49.904805,37.8906853 C48.6725876,37.8906853 47.543055,38.9175331 47.543055,40.2524353 L47.543055,54.1148811 C47.543055,55.3470985 48.5699028,56.4766312 49.904805,56.4766312 L92.3136208,56.4766312 L93.3404686,56.4766312 C98.4747078,56.4766312 102.684784,60.6867073 102.684784,65.8209465 L102.684784,91.2867729 C102.684784,92.5189903 103.711632,93.6485229 105.046534,93.6485229 L119.011665,93.6485229 C120.243882,93.6485229 121.373415,92.6216751 121.373415,91.2867729 L121.373415,65.8209465 C121.27073,58.4276421 118.395556,51.7531311 113.774741,46.7215767 Z" id="Shape"></path>
        </g>
    </g>
</svg>